# xmcd
#
# Track frame offsets: 
#        150
#        14916
#        31053
#        48102
#        63817
#        84324
#        100302
#        118650
#        135768
#        153832
#        169318
#        189293
#        209277
#        232601
#
# Disc length: 3384 seconds
#
# Revision: 2
# Processed by: cddbd v1.5.2PL0 Copyright (c) Steve Scherf et al.
# Submitted via: ExactAudioCopyFreeDBPlugin 1.0
#
DISCID=a00d360e
DTITLE=Adam Lambert - For Your Entertainment
DYEAR=2009
DGENRE=Pop
TTITLE0=Music Again
TTITLE1=For Your Entertainment
TTITLE2=Whataya Want From Me
TTITLE3=Strut
TTITLE4=Soaked
TTITLE5=Sure Fire Winners
TTITLE6=A Lorded Smile
TTITLE7=If I Had You
TTITLE8=Pick U Up
TTITLE9=Fever
TTITLE10=Sleepwalker
TTITLE11=Aftermath
TTITLE12=Broken Open
TTITLE13=Time For Miracles (Bonus Track)
EXTD=YEAR: 2009
EXTT0=
EXTT1=
EXTT2=
EXTT3=
EXTT4=
EXTT5=
EXTT6=
EXTT7=
EXTT8=
EXTT9=
EXTT10=
EXTT11=
EXTT12=
EXTT13=
PLAYORDER=
